<?xml version="1.0" encoding="utf-8"?>
<!-- Generator: Adobe Illustrator 16.0.4, SVG Export Plug-In . SVG Version: 6.00 Build 0)  -->
<!DOCTYPE svg PUBLIC "-//W3C//DTD SVG 1.1//EN" "http://www.w3.org/Graphics/SVG/1.1/DTD/svg11.dtd">
<svg version="1.1" id="Layer_1" xmlns="http://www.w3.org/2000/svg" xmlns:xlink="http://www.w3.org/1999/xlink" x="0px" y="0px"
	 width="382.237px" height="106.984px" viewBox="0 0 382.237 106.984" enable-background="new 0 0 382.237 106.984"
	 xml:space="preserve">
<g>
	<g opacity="0.3">
		<polygon points="38.334,50.884 70.556,62.104 57.81,81.428 		"/>
		<polygon fill="#322B29" points="91.006,34.365 70.556,62.104 63.58,6.627 		"/>
		<polygon fill="#A9A3A1" points="38.334,50.884 67.068,34.365 70.556,62.104 		"/>
		<polygon fill="#939598" points="57.81,81.428 81.345,106.984 81.345,60.234 		"/>
		<polygon fill="#3D3533" points="70.556,62.104 81.345,60.234 57.81,81.428 		"/>
		<polygon fill="#524B48" points="91.006,34.365 108.176,53.689 81.345,60.234 		"/>
		<polygon fill="#5F5654" points="70.556,62.104 81.345,60.234 91.006,34.365 		"/>
		<polygon fill="#58595B" points="108.176,53.689 81.345,85.167 81.345,60.234 		"/>
		<polygon points="38.334,50.884 23.375,96.388 57.81,81.428 		"/>
		<polygon fill="#28211F" points="0,39.664 38.334,50.884 28.293,81.428 		"/>
		<polygon fill="#58595B" points="23.375,96.388 3.896,76.597 28.293,81.428 		"/>
		<polygon fill="#524B48" points="0,39.664 3.896,76.597 28.293,81.428 		"/>
		<polygon points="108.176,53.689 113.446,78.311 87.189,78.311 		"/>
		<polygon fill="#100906" points="91.006,34.365 132.769,14.73 108.176,53.689 		"/>
		<polygon points="147.106,76.597 108.176,53.689 113.446,78.311 		"/>
		<polygon points="132.769,14.73 127.641,50.884 108.176,53.689 		"/>
		<polygon fill="#28211F" points="132.769,14.73 147.106,76.597 127.641,50.884 		"/>
		<polygon points="108.176,53.689 127.641,50.884 147.106,76.597 		"/>
		<polygon fill="#100906" points="141.148,50.884 183.415,76.597 149.911,90.777 		"/>
		<polygon points="174.533,30.626 162.281,63.74 183.415,76.597 		"/>
		<polygon fill="#98918F" points="201.336,12.238 174.533,30.626 178.989,53.689 		"/>
		<polygon fill="#6C6361" points="206.01,60.545 178.989,53.689 201.336,12.238 		"/>
		<polygon fill="#28211F" points="183.415,76.597 206.01,60.545 178.989,53.689 		"/>
		<polygon points="226.892,81.428 206.01,60.545 183.415,76.597 		"/>
		<polygon fill="#28211F" points="228.452,43.716 206.01,60.545 203.674,36.392 		"/>
		<polygon points="228.452,19.095 218.698,40.832 247.462,48.469 		"/>
		<polygon fill="#3D3533" points="236.866,69.428 228.452,43.422 206.01,60.545 		"/>
		<polygon points="226.892,81.428 236.866,69.428 206.01,60.545 		"/>
		<polygon points="203.674,36.392 228.452,19.095 218.698,40.832 		"/>
		<polygon fill="#010000" points="247.462,48.469 236.866,69.428 228.452,43.422 		"/>
		<polygon fill="#98918F" points="276.449,90.777 236.866,69.428 226.892,81.428 		"/>
		<polygon fill="#1D1714" points="247.462,48.469 260.73,82.3 236.866,69.428 		"/>
		<polygon fill="#79716F" points="275.24,36.392 247.462,48.469 260.73,82.3 		"/>
		<polygon fill="#28211F" points="286.624,62.104 272.308,45.664 260.73,82.3 		"/>
		<polygon fill="#98918F" points="278.318,90.777 286.624,62.104 260.73,82.3 		"/>
		<polygon fill="#A7A9AC" points="272.308,45.664 308.238,34.365 286.624,62.104 		"/>
		<polygon fill="#2B2B2D" points="275.24,36.392 281.244,42.854 272.308,45.664 		"/>
		<polygon points="308.238,34.365 311.355,69.428 286.624,62.104 		"/>
		<polygon fill="#1D1714" points="278.318,90.777 304.808,83.609 286.624,62.104 		"/>
		<polygon fill="#100906" points="311.355,69.428 311.355,90.777 286.624,62.104 		"/>
		<polygon fill="#88817F" points="328.496,58.364 311.355,68.337 340.652,87.973 		"/>
		<polygon fill="#010000" points="379.297,39.664 340.652,89.22 328.496,58.364 		"/>
		<polygon fill="#414042" points="311.355,68.337 340.652,88.284 311.355,90.777 		"/>
		<polygon fill="#98918F" points="363.949,59.346 382.102,90.777 340.652,89.22 		"/>
		<polygon fill="#28211F" points="328.496,58.364 362.934,2.888 379.297,39.664 		"/>
		<polygon fill="#28211F" points="308.238,34.365 328.496,58.364 311.355,68.337 		"/>
	</g>
	<g opacity="0.6">
		<path fill="#FFFFFF" d="M38.412,44.63l22.531-12.934l-0.104-0.289l-40.676,7.169l-0.02,0.302l18.145,5.766L38.412,44.63z
			 M60.016,31.869L38.317,44.326l-17.476-5.554L60.016,31.869z"/>
		<path fill="#FFFFFF" d="M160.968,55.606l7.792-23.997l-0.228-0.184l-23.998,14.104l-0.002,0.268l16.206,9.896L160.968,55.606z
			 M144.916,45.666l23.42-13.763l-7.604,23.42L144.916,45.666z"/>
		<path fill="#FFFFFF" d="M364.135,56.554l15.284-19.599l-0.03-0.041l0.051-0.118L363.077,0.019L362.803,0l-33.685,54.261
			c-0.188-0.091-0.399-0.144-0.623-0.144c-0.298,0-0.575,0.091-0.805,0.246l-18.41-21.809c0.245-0.26,0.397-0.608,0.397-0.994
			c0-0.795-0.646-1.441-1.44-1.441c-0.796,0-1.442,0.646-1.442,1.441c0,0.096,0.012,0.19,0.028,0.281l-24.261,7.629
			c-0.223-0.508-0.729-0.863-1.319-0.863c-0.323,0-0.62,0.108-0.86,0.287l-3.973-4.276c0.168-0.236,0.269-0.524,0.269-0.837
			c0-0.796-0.645-1.441-1.439-1.441c-0.798,0-1.442,0.646-1.442,1.441c0,0.086,0.01,0.17,0.023,0.252L248.714,44.95
			c-0.249-0.435-0.717-0.729-1.252-0.729c-0.233,0-0.452,0.058-0.646,0.155l-17.29-26.714c0.227-0.255,0.366-0.59,0.366-0.958
			c0-0.796-0.646-1.44-1.44-1.44c-0.796,0-1.442,0.645-1.442,1.44c0,0.127,0.02,0.249,0.049,0.366l-22.3,15.568
			c-0.261-0.299-0.642-0.488-1.068-0.493l-2.061-21.303c0.655-0.135,1.147-0.716,1.147-1.411c0-0.796-0.646-1.441-1.44-1.441
			c-0.797,0-1.441,0.646-1.441,1.441c0,0.247,0.062,0.479,0.172,0.682l-24.442,16.768c-0.264-0.307-0.655-0.503-1.092-0.503
			c-0.796,0-1.441,0.646-1.441,1.442c0,0.563,0.325,1.051,0.798,1.288l-11.311,30.571c-0.096-0.021-0.195-0.03-0.298-0.03
			c-0.417,0-0.792,0.178-1.054,0.461l-18.724-11.391c0.055-0.152,0.085-0.315,0.085-0.485c0-0.796-0.645-1.442-1.44-1.442
			c-0.047,0-0.092,0.003-0.137,0.007l-7.7-33.227c0.528-0.215,0.899-0.731,0.899-1.335c0-0.796-0.645-1.442-1.441-1.442
			c-0.795,0-1.441,0.646-1.441,1.442c0,0.062,0.005,0.125,0.014,0.187L92.235,30.811c-0.253-0.414-0.708-0.691-1.229-0.691
			c-0.339,0-0.65,0.118-0.896,0.314L64.698,4.731c0.202-0.248,0.323-0.564,0.323-0.909c0-0.795-0.646-1.44-1.441-1.44
			s-1.441,0.646-1.441,1.44c0,0.796,0.645,1.441,1.441,1.441c0.008,0,0.016-0.001,0.024-0.001l3.13,24.897
			c-0.635,0.15-1.108,0.72-1.108,1.4c0,0.206,0.044,0.402,0.122,0.579L39.498,47.23c-0.262-0.359-0.685-0.593-1.163-0.593
			c-0.6,0-1.114,0.368-1.331,0.889L1.417,37.111c0.015-0.082,0.023-0.166,0.023-0.252c0-0.796-0.645-1.441-1.441-1.441
			s-1.441,0.646-1.441,1.441c0,0.794,0.643,1.438,1.437,1.441L3.59,72.384c-0.649,0.14-1.136,0.717-1.136,1.407
			c0,0.796,0.645,1.442,1.441,1.442c0.337,0,0.648-0.117,0.894-0.312l18.474,18.771l0.109-0.025l0.065,0.059L57.77,78.809
			l23.459,25.476l0.271-0.105V82.42l5.76-6.759h26.186l0.003-0.003l0.005,0.003l32.23-1.641c0.103,0.636,0.62,1.135,1.266,1.204
			l2.808,12.781l0.213,0.109l32.185-13.622c0.246,0.441,0.717,0.74,1.258,0.74c0.688,0,1.263-0.483,1.406-1.129l42.049,4.672
			l49.548,9.349l0.103-0.29l-9.689-5.226l11.419,5.503l0.067-0.03l0.04,0.041l26.492-7.168l0.064-0.21l6.321,7.329l0.053-0.02
			l0.079,0.073l28.824-2.453l0.313,0.796l0.1,0.016l0.04,0.084l41.451,1.558l0.141-0.233L364.135,56.554z M226.882,78.392
			l-19.749-19.749c0.087-0.106,0.158-0.227,0.211-0.356l27.809,8.006c-0.025,0.107-0.04,0.217-0.04,0.331
			c0,0.476,0.231,0.896,0.587,1.159l-4.604,5.538L226.882,78.392z M200.793,10.768c0.162,0.066,0.34,0.104,0.525,0.105l2.062,21.302
			c-0.655,0.136-1.147,0.717-1.147,1.412c0,0.79,0.636,1.431,1.424,1.44l2.061,21.302c-0.488,0.101-0.885,0.45-1.056,0.908
			l-24.247-6.152c0.009-0.065,0.016-0.132,0.016-0.201c0-0.492-0.247-0.926-0.625-1.187l8.419-15.617L200.793,10.768z
			 M260.429,79.155l-22.492-12.131c0.038-0.128,0.059-0.262,0.059-0.401c0-0.403-0.166-0.769-0.435-1.03l1.981-3.919l7.413-14.662
			c0.158,0.06,0.329,0.094,0.507,0.094c0.131,0,0.258-0.02,0.379-0.052l1.229,3.139L260.429,79.155z M246.04,45.447
			c-0.012,0.071-0.018,0.143-0.018,0.217c0,0.506,0.262,0.95,0.656,1.207l-3.923,7.756l-5.444,10.771
			c-0.217-0.135-0.474-0.215-0.748-0.217l-7.523-23.25c0.345-0.155,0.618-0.442,0.756-0.797l13.972,3.709L246.04,45.447z
			 M203.967,34.998c0.469-0.097,0.855-0.423,1.035-0.855l12.278,3.629c-0.016,0.084-0.023,0.169-0.023,0.256
			c0,0.796,0.645,1.441,1.44,1.441c0.599,0,1.112-0.365,1.329-0.886l6.984,2.064c0.006,0.261,0.08,0.504,0.207,0.714l-20.164,15.388
			c-0.259-0.273-0.622-0.444-1.026-0.449l-1.51-15.602L203.967,34.998z M207.25,57.007l20.327-15.246
			c0.242,0.186,0.545,0.298,0.875,0.298c0.1,0,0.198-0.011,0.293-0.03l7.502,23.187c-0.438,0.097-0.799,0.391-0.989,0.783
			l-27.828-8.011c0.015-0.08,0.022-0.163,0.022-0.247C207.452,57.472,207.377,57.222,207.25,57.007z M184.492,72.836
			c-0.264-0.297-0.648-0.486-1.077-0.486c-0.04,0-0.08,0.003-0.118,0.007l-1.86-9.623l-2.023-10.472
			c0.428-0.132,0.769-0.458,0.925-0.875l24.247,6.153c-0.009,0.065-0.016,0.133-0.016,0.2c0,0.256,0.066,0.495,0.183,0.703
			l-15.487,11.001L184.492,72.836z M272.026,44.271c0.09,0.019,0.186,0.029,0.282,0.029c0.307,0,0.589-0.097,0.823-0.26
			l12.435,14.281c-0.237,0.257-0.383,0.6-0.383,0.977c0,0.278,0.079,0.537,0.215,0.758L261.03,79.063L272.026,44.271z
			 M288.04,59.556c0.017-0.083,0.024-0.169,0.024-0.257c0-0.405-0.168-0.771-0.438-1.034l19.854-25.479
			c0.213,0.131,0.461,0.21,0.729,0.214l2.768,31.143c-0.612,0.166-1.064,0.725-1.064,1.39c0,0.188,0.038,0.367,0.104,0.531
			l-8.453-2.503L288.04,59.556z M312.63,66.2c0.104-0.2,0.165-0.427,0.165-0.668c0-0.208-0.045-0.406-0.126-0.585l14.668-8.534
			c0.263,0.356,0.683,0.588,1.158,0.588c0.132,0,0.259-0.02,0.38-0.053l10.78,27.364L312.63,66.2z M327.179,56.145l-14.666,8.533
			c-0.259-0.349-0.669-0.578-1.135-0.586l-2.855-31.118c0.19-0.038,0.366-0.113,0.52-0.217l18.41,21.809
			c-0.245,0.259-0.397,0.608-0.397,0.994C327.055,55.768,327.099,55.966,327.179,56.145z M279.83,40.33l-6.202,1.95
			c-0.144-0.33-0.408-0.595-0.738-0.74l2.01-6.359c0.109,0.026,0.222,0.042,0.341,0.042c0.37,0,0.706-0.141,0.961-0.371l3.954,4.255
			c-0.219,0.252-0.352,0.582-0.352,0.942C279.803,40.145,279.813,40.239,279.83,40.33z M263.659,77.408l21.932-17.105
			c0.136,0.141,0.301,0.253,0.484,0.329l-7.856,27.12l-17.194-8.288L263.659,77.408z M287.953,59.855l18.606,5.511l3.692,1.093
			c0.233,0.277,0.567,0.465,0.946,0.506v20.588L287.675,60.28C287.792,60.157,287.886,60.014,287.953,59.855z M340.111,84.617
			l-3.47-8.807l3.671,8.942L340.111,84.617z M362.913,0.415l16.174,36.355l-49.301,18.147c-0.097-0.193-0.234-0.361-0.402-0.493
			L362.913,0.415z M306.917,32.14c0.076,0.172,0.184,0.326,0.317,0.454l-19.854,25.48c-0.22-0.137-0.479-0.217-0.757-0.217
			c-0.306,0-0.59,0.097-0.822,0.26l-12.435-14.282c0.235-0.256,0.383-0.599,0.383-0.977c0-0.096-0.011-0.189-0.028-0.28l6.202-1.951
			c0.224,0.508,0.73,0.863,1.32,0.863c0.795,0,1.44-0.646,1.44-1.441c0-0.096-0.01-0.19-0.027-0.28L306.917,32.14z M273.908,34.335
			c0.135,0.323,0.384,0.585,0.697,0.739l-2.014,6.371c-0.092-0.019-0.186-0.028-0.283-0.028c-0.796,0-1.44,0.646-1.44,1.441
			c0,0.59,0.353,1.096,0.86,1.319l-11.014,34.85l-2.176-5.545L248.131,46.94c0.459-0.241,0.772-0.723,0.772-1.276
			c0-0.149-0.023-0.293-0.064-0.429L273.908,34.335z M246.119,45.146l-16.244-4.312c0.011-0.07,0.018-0.143,0.018-0.216
			c0-0.797-0.646-1.442-1.44-1.442c-0.613,0-1.137,0.385-1.344,0.924l-6.987-1.854c0.012-0.071,0.018-0.144,0.018-0.218
			c0-0.529-0.287-0.991-0.711-1.242l8.42-18.772c0.185,0.085,0.389,0.134,0.604,0.134c0.313,0,0.604-0.101,0.84-0.272l17.263,26.672
			C246.361,44.703,246.21,44.91,246.119,45.146z M227.174,17.37c0.098,0.188,0.237,0.353,0.405,0.48l-8.438,18.807
			c-0.141-0.045-0.289-0.07-0.444-0.07c-0.599,0-1.112,0.365-1.329,0.886l-12.278-3.63c0.016-0.083,0.024-0.169,0.024-0.256
			c0-0.251-0.065-0.486-0.177-0.692L227.174,17.37z M200.244,10.371c0.081,0.094,0.173,0.178,0.276,0.248l-18.113,33.597
			l-2.875,5.333c-0.168-0.068-0.351-0.106-0.543-0.106c-0.04,0-0.079,0.003-0.119,0.007l-1.695-8.773l-2.218-11.478
			c0.589-0.182,1.017-0.729,1.017-1.377c0-0.247-0.062-0.479-0.172-0.683L200.244,10.371z M174.182,29.217
			c0.112,0.029,0.229,0.046,0.351,0.046c0.04,0,0.079-0.004,0.118-0.007l3.914,20.251c-0.589,0.182-1.017,0.729-1.017,1.377
			c0,0.796,0.645,1.442,1.441,1.442c0.04,0,0.08-0.004,0.119-0.007l3.882,20.095c-0.289,0.089-0.537,0.268-0.717,0.501
			l-18.636-11.337c0.054-0.152,0.085-0.315,0.085-0.487c0-0.583-0.348-1.085-0.847-1.312L174.182,29.217z M111.387,65.141
			l-2.759-12.889c0.284-0.094,0.527-0.273,0.702-0.508L145.793,73.2c-0.071,0.156-0.114,0.328-0.125,0.509l-32.099,1.635
			L111.387,65.141z M69.897,60.58c0.197,0.103,0.421,0.16,0.658,0.16c0.796,0,1.441-0.646,1.441-1.441
			c0-0.03-0.002-0.06-0.004-0.091l7.968-1.381c0.047,0.161,0.121,0.312,0.216,0.443L58.61,77.692L69.897,60.58z M82.698,56.938
			c-0.125-0.347-0.38-0.631-0.707-0.796l3.435-9.195l5.226-13.991c0.114,0.029,0.232,0.046,0.355,0.046
			c0.311,0,0.599-0.1,0.834-0.268l12.106,13.625l3.162,3.559c-0.231,0.256-0.374,0.594-0.374,0.966c0,0.064,0.005,0.127,0.014,0.188
			L94.94,53.952L82.698,56.938z M132.372,13.622l-4.685,33.019c-0.015-0.001-0.031-0.003-0.046-0.003
			c-0.796,0-1.441,0.646-1.441,1.441c0,0.017,0.001,0.033,0.002,0.05l-16.632,2.396c-0.08-0.308-0.257-0.576-0.499-0.769
			l22.92-36.307C132.108,13.524,132.236,13.583,132.372,13.622z M145.952,72.932l-36.463-21.456c0.082-0.181,0.128-0.38,0.128-0.592
			c0-0.017-0.002-0.033-0.002-0.049l16.632-2.397c0.16,0.622,0.723,1.083,1.395,1.083c0.271,0,0.523-0.076,0.739-0.206
			l17.738,23.431C146.057,72.802,146.001,72.864,145.952,72.932z M90.282,32.806c0.025,0.015,0.051,0.028,0.078,0.042L81.7,56.034
			c-0.114-0.029-0.232-0.046-0.355-0.046c-0.796,0-1.441,0.646-1.441,1.441c0,0.03,0.002,0.06,0.005,0.09l-2.839,0.492l-5.129,0.89
			c-0.074-0.258-0.218-0.485-0.409-0.661l12.35-16.753L90.282,32.806z M0.674,38.133l26.687,39.391
			c-0.205,0.176-0.361,0.405-0.443,0.668l-0.004-0.001L5.331,73.917c0.003-0.042,0.006-0.083,0.006-0.126
			c0-0.794-0.643-1.438-1.437-1.441L0.305,38.267C0.436,38.239,0.559,38.193,0.674,38.133z M5.271,74.223l21.587,4.275
			c-0.004,0.041-0.006,0.082-0.006,0.124c0,0.583,0.347,1.085,0.846,1.312l-4.391,13.356L5.012,74.703
			C5.126,74.563,5.215,74.399,5.271,74.223z M27.994,80.032c0.097,0.02,0.197,0.032,0.299,0.032c0.796,0,1.441-0.646,1.441-1.442
			c0-0.583-0.348-1.085-0.846-1.312l9.146-27.822c0.097,0.021,0.197,0.032,0.299,0.032c0.23,0,0.446-0.055,0.638-0.15L57.58,78.553
			L23.631,93.301L27.994,80.032z M39.236,49.202c0.168-0.135,0.305-0.308,0.399-0.505l29.517,10.277
			c-0.024,0.105-0.038,0.213-0.038,0.324c0,0.447,0.204,0.846,0.522,1.11L57.812,78.336l-14.13-22.162L39.236,49.202z
			 M140.706,46.863c-0.58,0.187-0.999,0.73-0.999,1.372c0,0.795,0.645,1.441,1.441,1.441c0.063,0,0.126-0.006,0.188-0.014
			l5.029,22.891l-17.735-23.427c0.278-0.264,0.452-0.635,0.452-1.048c0-0.673-0.462-1.237-1.085-1.396l4.683-33.01
			c0.03,0.003,0.061,0.005,0.09,0.005c0.083,0,0.164-0.009,0.242-0.021L140.706,46.863z M131.417,12.733
			c0.073,0.197,0.186,0.374,0.33,0.521l-22.939,36.337c-0.191-0.095-0.405-0.148-0.632-0.148c-0.312,0-0.599,0.101-0.834,0.269
			L92.073,32.527c0.231-0.256,0.374-0.594,0.374-0.967c0-0.164-0.028-0.32-0.079-0.468L131.417,12.733z M63.913,5.225
			c0.208-0.051,0.4-0.145,0.562-0.274l25.413,25.702c-0.202,0.248-0.323,0.563-0.323,0.908c0,0.42,0.181,0.796,0.467,1.06
			l-8.617,11.687L71.28,58.055c-0.213-0.125-0.459-0.197-0.724-0.197c-0.008,0-0.016,0.001-0.024,0.001l-2.547-20.255l-0.583-4.642
			c0.635-0.15,1.108-0.721,1.108-1.401c0-0.795-0.646-1.441-1.441-1.441c-0.008,0-0.016,0.001-0.024,0.001L63.913,5.225z
			 M65.905,32.409c0.262,0.359,0.685,0.593,1.163,0.593c0.008,0,0.016-0.001,0.024-0.001l2.989,23.773l0.142,1.124
			c-0.428,0.102-0.782,0.394-0.967,0.782L39.738,48.402c0.023-0.104,0.038-0.212,0.038-0.323c0-0.206-0.044-0.401-0.122-0.578
			L65.905,32.409z M36.917,47.826c-0.015,0.083-0.023,0.167-0.023,0.253c0,0.583,0.347,1.085,0.846,1.312l-9.146,27.822
			c-0.097-0.021-0.197-0.032-0.3-0.032c-0.244,0-0.473,0.062-0.675,0.168L19.04,64.686L0.932,37.957
			c0.172-0.146,0.311-0.333,0.399-0.546L36.917,47.826z M81.188,103.779L58.031,78.633l13.147-11.839l9.207-8.291
			c0.219,0.194,0.496,0.325,0.803,0.358v23.501V103.779z M81.5,58.861c0.723-0.077,1.285-0.688,1.285-1.432
			c0-0.064-0.005-0.127-0.013-0.188l24.05-5.866c0.067,0.187,0.173,0.355,0.307,0.498L81.5,81.939V58.861z M107.365,52.075
			c0.23,0.158,0.51,0.251,0.811,0.251c0.05,0,0.099-0.004,0.147-0.008l4.37,20.417l0.56,2.614H87.526L107.365,52.075z
			 M150.023,87.756l-2.753-12.533c0.719-0.081,1.277-0.691,1.277-1.432c0-0.795-0.645-1.441-1.441-1.441
			c-0.058,0-0.115,0.005-0.172,0.012l-5.278-22.779c0.295-0.111,0.543-0.316,0.71-0.579l18.674,11.359
			c-0.126,0.214-0.2,0.463-0.2,0.729c0,0.796,0.646,1.441,1.441,1.441c0.514,0,0.963-0.27,1.218-0.673l7.218,4.39l11.394,6.932
			c-0.087,0.186-0.138,0.392-0.138,0.61c0,0.145,0.022,0.284,0.062,0.415L150.023,87.756z M184.856,73.795c0-0.001,0-0.002,0-0.004
			c0-0.255-0.066-0.494-0.183-0.701l13.084-9.294l7.177-5.099c0.265,0.297,0.648,0.485,1.076,0.485c0.342,0,0.656-0.12,0.903-0.319
			l19.555,19.555L184.856,73.795z M227.182,78.519l8.791-10.577c0.178,0.079,0.374,0.123,0.58,0.123c0.547,0,1.021-0.304,1.265-0.75
			l4.191,2.26l33.482,18.059L227.182,78.519z M278.544,87.75l7.83-27.032c0.081,0.014,0.165,0.022,0.249,0.022
			c0.299,0,0.576-0.091,0.807-0.246l17.103,20.224L278.544,87.75z M311.51,87.803V66.965c0.375-0.04,0.706-0.226,0.939-0.498
			l27.571,18.771l0.052,0.134L311.51,87.803z M340.664,85.634l0.075-0.283l-0.132-0.09l0.188-0.152l-11.612-28.283
			c0.448-0.244,0.753-0.72,0.753-1.266c0-0.121-0.016-0.237-0.043-0.349l48.944-18.017l-38.142,48.909l-0.179-0.457L340.664,85.634z
			 M340.96,86.27l22.969-29.45l17.897,30.986L340.96,86.27z"/>
		<circle fill="#FFFFFF" cx="156.612" cy="23.257" r="1.441"/>
		<circle fill="#FFFFFF" cx="293.004" cy="8.81" r="1.441"/>
		<path fill="#FFFFFF" d="M313.068,32.224c0.275,0,0.532-0.079,0.751-0.214l13.211,17.135c-0.272,0.263-0.442,0.63-0.442,1.038
			c0,0.796,0.646,1.442,1.44,1.442c0.796,0,1.44-0.646,1.44-1.442c0-0.463-0.219-0.874-0.559-1.138l23.903-38.935
			c0.188,0.09,0.396,0.141,0.617,0.141c0.795,0,1.44-0.646,1.44-1.442c0-0.795-0.646-1.44-1.44-1.44
			c-0.798,0-1.442,0.646-1.442,1.44c0,0.195,0.04,0.38,0.109,0.549L314.251,29.96c-0.26-0.374-0.692-0.62-1.184-0.62
			c-0.796,0-1.44,0.646-1.44,1.442C311.627,31.577,312.272,32.224,313.068,32.224z M352.247,9.631
			c0.084,0.121,0.185,0.227,0.301,0.317l-23.902,38.934c-0.188-0.09-0.396-0.141-0.617-0.141c-0.275,0-0.53,0.079-0.751,0.213
			L314.066,31.82c0.272-0.263,0.443-0.63,0.443-1.038c0-0.195-0.039-0.38-0.109-0.549L352.247,9.631z"/>
	</g>
</g>
</svg>
